<svg width="36" height="36" viewBox="0 0 36 36" fill="none" xmlns="http://www.w3.org/2000/svg">
<rect x="0.75" y="0.75" width="34.5" height="34.5" stroke="#155DFC" stroke-width="1.5"/>
<path d="M18 27V13M18 27C18 26.2044 17.6839 25.4413 17.1213 24.8787C16.5587 24.3161 15.7956 24 15 24H9C8.73478 24 8.48043 23.8946 8.29289 23.7071C8.10536 23.5196 8 23.2652 8 23V10C8 9.73478 8.10536 9.48043 8.29289 9.29289C8.48043 9.10536 8.73478 9 9 9H14C15.0609 9 16.0783 9.42143 16.8284 10.1716C17.5786 10.9217 18 11.9391 18 13M18 27C18 26.2044 18.3161 25.4413 18.8787 24.8787C19.4413 24.3161 20.2044 24 21 24H27C27.2652 24 27.5196 23.8946 27.7071 23.7071C27.8946 23.5196 28 23.2652 28 23V21.7M18 13C18 11.9391 18.4214 10.9217 19.1716 10.1716C19.9217 9.42143 20.9391 9 22 9H27C27.2652 9 27.5196 9.10536 27.7071 9.29289C27.8946 9.48043 28 9.73478 28 10V12M22 18L24 20L28 16" stroke="#155DFC" stroke-width="1.5" stroke-linecap="round" stroke-linejoin="round"/>
</svg>
