<svg width="146" height="40" viewBox="0 0 146 40" fill="none" xmlns="http://www.w3.org/2000/svg">
<path d="M17.2 18.5996L14.4 22.0996L17.2 25.5996" fill="#155DFC"/>
<path d="M22.8 18.5996L25.6 22.0996L22.8 25.5996" fill="#155DFC"/>
<path d="M31.2 31.8996C31.9426 31.8996 32.6548 31.6046 33.1799 31.0795C33.705 30.5544 34 29.8422 34 29.0996V15.0996C34 14.357 33.705 13.6448 33.1799 13.1197C32.6548 12.5946 31.9426 12.2996 31.2 12.2996H20.14C19.6717 12.3042 19.2098 12.1913 18.7964 11.9711C18.3831 11.751 18.0315 11.4307 17.774 11.0396L16.64 9.35961C16.385 8.97247 16.038 8.65468 15.6299 8.43476C15.2218 8.21485 14.7656 8.09969 14.302 8.09961H8.8C8.05739 8.09961 7.3452 8.39461 6.8201 8.91971C6.295 9.44481 6 10.157 6 10.8996V29.0996C6 29.8422 6.295 30.5544 6.8201 31.0795C7.3452 31.6046 8.05739 31.8996 8.8 31.8996H31.2Z" fill="#155DFC"/>
<path d="M17.2 18.5996L14.4 22.0996L17.2 25.5996M22.8 18.5996L25.6 22.0996L22.8 25.5996M31.2 31.8996C31.9426 31.8996 32.6548 31.6046 33.1799 31.0795C33.705 30.5544 34 29.8422 34 29.0996V15.0996C34 14.357 33.705 13.6448 33.1799 13.1197C32.6548 12.5946 31.9426 12.2996 31.2 12.2996H20.14C19.6717 12.3042 19.2098 12.1913 18.7964 11.9711C18.3831 11.751 18.0315 11.4307 17.774 11.0396L16.64 9.35961C16.385 8.97247 16.038 8.65468 15.6299 8.43476C15.2218 8.21485 14.7656 8.09969 14.302 8.09961H8.8C8.05739 8.09961 7.3452 8.39461 6.8201 8.91971C6.295 9.44481 6 10.157 6 10.8996V29.0996C6 29.8422 6.295 30.5544 6.8201 31.0795C7.3452 31.6046 8.05739 31.8996 8.8 31.8996H31.2Z" stroke="white" stroke-width="1.5" stroke-linecap="round" stroke-linejoin="round"/>
<path d="M51.72 27V12.8H60.52V15.08H54.2V18.78H60.28V20.98H54.2V24.72H60.68V27H51.72ZM62.7922 27L66.6522 21.52L62.9922 16.32H65.5922L68.0122 19.9L70.3722 16.32H73.0122L69.3722 21.56L73.1922 27H70.5722L68.0122 23.14L65.4322 27H62.7922ZM78.5044 27.24C77.8377 27.24 77.2377 27.12 76.7044 26.88C76.171 26.64 75.7444 26.3 75.4244 25.86C75.1044 25.4067 74.9444 24.8733 74.9444 24.26C74.9444 23.3533 75.2244 22.6533 75.7844 22.16C76.3577 21.6533 77.1777 21.2867 78.2444 21.06L81.5844 20.36C81.5844 19.6133 81.4244 19.0467 81.1044 18.66C80.7977 18.26 80.311 18.06 79.6444 18.06C79.031 18.06 78.5577 18.2067 78.2244 18.5C77.891 18.7933 77.671 19.18 77.5644 19.66L75.1044 19.52C75.3044 18.4933 75.7977 17.6667 76.5844 17.04C77.3844 16.4 78.391 16.08 79.6044 16.08C81.0577 16.08 82.1444 16.4667 82.8644 17.24C83.5844 18.0133 83.9444 19.0933 83.9444 20.48V24.46C83.9444 24.7267 83.9977 24.9133 84.1044 25.02C84.211 25.1133 84.3577 25.16 84.5444 25.16H85.0644V27C84.9844 27.0133 84.851 27.0267 84.6644 27.04C84.491 27.0667 84.311 27.08 84.1244 27.08C83.6177 27.08 83.1844 26.9933 82.8244 26.82C82.4777 26.6467 82.211 26.3867 82.0244 26.04C81.8377 25.68 81.7377 25.24 81.7244 24.72H82.0244C81.9577 25.2 81.7644 25.6333 81.4444 26.02C81.1244 26.3933 80.711 26.6933 80.2044 26.92C79.711 27.1333 79.1444 27.24 78.5044 27.24ZM78.9244 25.4C79.4977 25.4 79.9844 25.3 80.3844 25.1C80.7844 24.8867 81.0844 24.5933 81.2844 24.22C81.4844 23.8333 81.5844 23.3733 81.5844 22.84V22.12L78.9244 22.68C78.351 22.7867 77.951 22.96 77.7244 23.2C77.511 23.4267 77.4044 23.7333 77.4044 24.12C77.4044 24.52 77.5377 24.8333 77.8044 25.06C78.071 25.2867 78.4444 25.4 78.9244 25.4ZM86.6166 27V16.32H88.5966L88.6966 18.76L88.4566 18.7C88.6166 17.8467 88.8899 17.2 89.2766 16.76C89.6632 16.3067 90.1499 16.08 90.7366 16.08C91.3766 16.08 91.8566 16.3067 92.1766 16.76C92.4966 17.2133 92.7032 17.8933 92.7966 18.8H92.5366C92.6699 17.92 92.9499 17.2467 93.3766 16.78C93.8166 16.3133 94.3566 16.08 94.9966 16.08C95.8099 16.08 96.4032 16.3667 96.7766 16.94C97.1499 17.5133 97.3366 18.4267 97.3366 19.68V27H95.0766V20.14C95.0766 19.3533 95.0032 18.82 94.8566 18.54C94.7099 18.2467 94.4766 18.1 94.1566 18.1C93.9432 18.1 93.7499 18.1733 93.5766 18.32C93.4166 18.4533 93.2832 18.6733 93.1766 18.98C93.0832 19.2867 93.0366 19.68 93.0366 20.16V27H90.9166V20.14C90.9166 19.3933 90.8432 18.8667 90.6966 18.56C90.5499 18.2533 90.3099 18.1 89.9766 18.1C89.7499 18.1 89.5566 18.1733 89.3966 18.32C89.2366 18.4533 89.1099 18.6733 89.0166 18.98C88.9232 19.2867 88.8766 19.68 88.8766 20.16V27H86.6166ZM110.381 27L114.421 12.8H117.501L121.541 27H119.001L115.961 15.6L112.921 27H110.381ZM112.861 23.64L113.541 21.42H118.381L119.061 23.64H112.861ZM123.233 30V16.32H125.493L125.553 18.76L125.313 18.64C125.58 17.8133 126.006 17.18 126.593 16.74C127.193 16.3 127.913 16.08 128.753 16.08C129.74 16.08 130.553 16.3333 131.193 16.84C131.846 17.3467 132.326 18.02 132.633 18.86C132.953 19.7 133.113 20.6333 133.113 21.66C133.113 22.6867 132.953 23.62 132.633 24.46C132.326 25.3 131.846 25.9733 131.193 26.48C130.553 26.9867 129.74 27.24 128.753 27.24C128.206 27.24 127.7 27.1533 127.233 26.98C126.78 26.7933 126.386 26.5333 126.053 26.2C125.733 25.8533 125.493 25.4267 125.333 24.92L125.593 24.64V30H123.233ZM128.153 25.12C128.94 25.12 129.553 24.8333 129.993 24.26C130.433 23.6733 130.653 22.8067 130.653 21.66C130.653 20.5133 130.433 19.6533 129.993 19.08C129.553 18.4933 128.94 18.2 128.153 18.2C127.646 18.2 127.2 18.3267 126.813 18.58C126.44 18.8333 126.14 19.22 125.913 19.74C125.7 20.2467 125.593 20.8867 125.593 21.66C125.593 22.4333 125.7 23.08 125.913 23.6C126.126 24.1067 126.426 24.4867 126.813 24.74C127.2 24.9933 127.646 25.12 128.153 25.12ZM135.225 30V16.32H137.485L137.545 18.76L137.305 18.64C137.572 17.8133 137.999 17.18 138.585 16.74C139.185 16.3 139.905 16.08 140.745 16.08C141.732 16.08 142.545 16.3333 143.185 16.84C143.839 17.3467 144.319 18.02 144.625 18.86C144.945 19.7 145.105 20.6333 145.105 21.66C145.105 22.6867 144.945 23.62 144.625 24.46C144.319 25.3 143.839 25.9733 143.185 26.48C142.545 26.9867 141.732 27.24 140.745 27.24C140.199 27.24 139.692 27.1533 139.225 26.98C138.772 26.7933 138.379 26.5333 138.045 26.2C137.725 25.8533 137.485 25.4267 137.325 24.92L137.585 24.64V30H135.225ZM140.145 25.12C140.932 25.12 141.545 24.8333 141.985 24.26C142.425 23.6733 142.645 22.8067 142.645 21.66C142.645 20.5133 142.425 19.6533 141.985 19.08C141.545 18.4933 140.932 18.2 140.145 18.2C139.639 18.2 139.192 18.3267 138.805 18.58C138.432 18.8333 138.132 19.22 137.905 19.74C137.692 20.2467 137.585 20.8867 137.585 21.66C137.585 22.4333 137.692 23.08 137.905 23.6C138.119 24.1067 138.419 24.4867 138.805 24.74C139.192 24.9933 139.639 25.12 140.145 25.12Z" fill="#155DFC"/>
</svg>
