<svg width="36" height="36" viewBox="0 0 36 36" fill="none" xmlns="http://www.w3.org/2000/svg">
<rect x="0.75" y="0.75" width="34.5" height="34.5" stroke="#155DFC" stroke-width="1.5"/>
<path d="M18 24.0001V11.0001M18 24.0001C18.0006 24.5469 18.1132 25.0877 18.331 25.5892C18.5488 26.0907 18.8671 26.5422 19.2662 26.9159C19.6654 27.2896 20.1369 27.5774 20.6516 27.7617C21.1664 27.9461 21.7134 28.0229 22.259 27.9875C22.8046 27.9521 23.3372 27.8052 23.8238 27.5559C24.3104 27.3066 24.7407 26.9602 25.0882 26.5381C25.4357 26.116 25.693 25.6271 25.8441 25.1017C25.9953 24.5762 26.0371 24.0254 25.967 23.4831M18 24.0001C17.9994 24.5469 17.8868 25.0877 17.669 25.5892C17.4512 26.0907 17.1329 26.5422 16.7338 26.9159C16.3346 27.2896 15.8631 27.5774 15.3484 27.7617C14.8336 27.9461 14.2866 28.0229 13.741 27.9875C13.1954 27.9521 12.6628 27.8052 12.1762 27.5559C11.6896 27.3066 11.2593 26.9602 10.9118 26.5381C10.5643 26.116 10.307 25.6271 10.1559 25.1017C10.0047 24.5762 9.96292 24.0254 10.033 23.4831M18 11.0001C18 10.54 18.1058 10.0859 18.3093 9.67322C18.5129 9.2605 18.8086 8.90012 19.1737 8.61998C19.5387 8.33983 19.9634 8.14743 20.4147 8.05765C20.866 7.96787 21.332 7.98312 21.7765 8.10223C22.221 8.22133 22.6321 8.44109 22.9781 8.74451C23.324 9.04793 23.5956 9.42687 23.7717 9.85203C23.9478 10.2772 24.0237 10.7371 23.9936 11.1963C23.9635 11.6555 23.8281 12.1016 23.598 12.5001M18 11.0001C18 10.54 17.8942 10.0859 17.6907 9.67322C17.4871 9.2605 17.1914 8.90012 16.8263 8.61998C16.4613 8.33983 16.0366 8.14743 15.5853 8.05765C15.134 7.96787 14.668 7.98312 14.2235 8.10223C13.779 8.22133 13.3679 8.44109 13.0219 8.74451C12.676 9.04793 12.4044 9.42687 12.2283 9.85203C12.0522 10.2772 11.9763 10.7371 12.0064 11.1963C12.0365 11.6555 12.1719 12.1016 12.402 12.5001M21 19.0001C20.1348 18.7472 19.3748 18.2208 18.834 17.4996C18.2932 16.7785 18.0005 15.9015 18 15.0001C17.9995 15.9015 17.7068 16.7785 17.166 17.4996C16.6252 18.2208 15.8652 18.7472 15 19.0001M23.997 11.1251C24.5848 11.2763 25.1305 11.5592 25.5928 11.9524C26.055 12.3457 26.4218 12.839 26.6652 13.395C26.9086 13.951 27.0222 14.555 26.9976 15.1614C26.973 15.7679 26.8107 16.3607 26.523 16.8951M24 24.0001C24.8805 24.0001 25.7364 23.7095 26.4349 23.1735C27.1335 22.6375 27.6356 21.8859 27.8635 21.0354C28.0914 20.1849 28.0323 19.283 27.6954 18.4695C27.3585 17.656 26.7625 16.9764 26 16.5361M12 24.0001C11.1195 24.0001 10.2636 23.7095 9.56507 23.1735C8.86653 22.6375 8.36437 21.8859 8.13648 21.0354C7.90858 20.1849 7.96768 19.283 8.30462 18.4695C8.64155 17.656 9.23748 16.9764 10 16.5361M12.003 11.1251C11.4152 11.2763 10.8695 11.5592 10.4072 11.9524C9.94496 12.3457 9.57824 12.839 9.33484 13.395C9.09145 13.951 8.97776 14.555 9.00239 15.1614C9.02702 15.7679 9.18932 16.3607 9.477 16.8951" stroke="#155DFC" stroke-width="1.5" stroke-linecap="round" stroke-linejoin="round"/>
</svg>
